<?xml version="1.0" encoding="UTF-8" standalone="no"?>
<svg
   xmlns:dc="http://purl.org/dc/elements/1.1/"
   xmlns:cc="http://creativecommons.org/ns#"
   xmlns:rdf="http://www.w3.org/1999/02/22-rdf-syntax-ns#"
   xmlns:svg="http://www.w3.org/2000/svg"
   xmlns="http://www.w3.org/2000/svg"
   xmlns:sodipodi="http://sodipodi.sourceforge.net/DTD/sodipodi-0.dtd"
   xmlns:inkscape="http://www.inkscape.org/namespaces/inkscape"
   height="64"
   width="256"
   version="1.1"
   id="Layer_51"
   x="0px"
   y="0px"
   viewBox="0 0 256 64"
   xml:space="preserve"
   sodipodi:docname="logo-text.svg"
   inkscape:version="1.0 (4035a4f, 2020-05-01)"><metadata
   id="metadata56"><rdf:RDF><cc:Work
       rdf:about=""><dc:format>image/svg+xml</dc:format><dc:type
         rdf:resource="http://purl.org/dc/dcmitype/StillImage" /><dc:title /></cc:Work></rdf:RDF></metadata><defs
   id="defs54"><rect
   id="rect884"
   height="54.224794"
   width="180.89052"
   y="5.9308369"
   x="71.170042" />
	

		
		
		
		
		
		
		
		
	</defs><sodipodi:namedview
   inkscape:document-rotation="0"
   pagecolor="#ffffff"
   bordercolor="#666666"
   borderopacity="1"
   objecttolerance="10"
   gridtolerance="10"
   guidetolerance="10"
   inkscape:pageopacity="0"
   inkscape:pageshadow="2"
   inkscape:window-width="1792"
   inkscape:window-height="1067"
   id="namedview52"
   showgrid="false"
   inkscape:zoom="1"
   inkscape:cx="119.83093"
   inkscape:cy="47.46032"
   inkscape:window-x="0"
   inkscape:window-y="25"
   inkscape:window-maximized="0"
   inkscape:current-layer="Layer_51" />
<style
   type="text/css"
   id="style10">
	.st0{fill:#ED1C24;}
	.st1{fill:#2488FF;}
	.st2{fill:#FF9811;}
	.st3{fill:#EE8700;}
	.st4{fill:#FFCD00;}
	.st5{fill:#EBBF00;}
	.st6{fill:#A97C50;}
	.st7{fill:#8B5E3C;}
	.st8{fill:#57A4FF;}
	.st9{fill:#D80027;}
	.st10{fill:#C49A6C;}
	.st11{fill:#AB2300;}
	.st12{fill:#DDB200;}
	.st13{fill:#CC7400;}
	.st14{fill:#754C29;}
	.st15{fill:#004FAC;}
	.st16{fill:#006DF0;}
	.st17{fill:#005ECE;}
	.st18{fill:#F1F2F2;}
	.st19{fill:#FFDE55;}
	.st20{fill:#FFEB99;}
	.st21{fill:#FFD422;}
	.st22{fill:#FFE477;}
	.st23{fill:#E6E7E8;}
	.st24{fill:#FF7956;}
	.st25{fill:#5EAC24;}
	.st26{fill:#4E901E;}
	.st27{fill:#939598;}
	.st28{fill:#58595B;}
	.st29{fill:#808285;}
	.st30{fill:#FFBCAB;}
	.st31{fill:#FF9478;}
	.st32{fill:#414042;}
	.st33{fill:#00479B;}
	.st34{fill:#003F8A;}
	.st35{fill:#FF6243;}
	.st36{fill:#9BC9FF;}
	.st37{fill:#FFAC96;}
	.st38{fill:none;}
	.st39{fill:#FF5023;}
	.st40{fill:#A7A9AC;}
	.st41{fill:#BCBEC0;}
	.st42{fill:#D1D3D4;}
	.st43{fill:#FFDAAA;}
	.st44{fill:#FFC477;}
	.st45{fill:#CCA400;}
	.st46{fill:#D1E7F8;}
	.st47{fill:#BD0022;}
	.st48{fill:#6D6E71;}
	.st49{fill:#565557;}
	.st50{fill:#FFA733;}
	.st51{fill:#A4E276;}
</style>
<g
   id="g16">
			<path
   class="st1"
   d="m 57,11 h -4 v 50 c 1.46,0 2.83,-0.39 4,-1.08 V 22 Z"
   id="path12"
   style="fill:#1ad2fb;fill-opacity:1" />
			<path
   class="st5"
   d="M 57,22 V 59.92 C 59.39,58.55 61,55.96 61,53 V 22 Z"
   id="path14"
   style="fill:#e2c35f;fill-opacity:1" />
		</g><path
   class="st35"
   d="M 53,61 V 11 7 h -4 v 52.92 c 1.17,0.69 2.54,1.08 4,1.08"
   id="path18"
   style="fill:#f36938;fill-opacity:1" /><polygon
   class="st24"
   points="17,3 17,14 7,14 "
   id="polygon20"
   style="fill:#5fa6b6;fill-opacity:1" /><polygon
   class="st20"
   points="7,61 7,14 17,14 17,3 49,3 49,61 "
   id="polygon22"
   style="fill:#1ad2fb;fill-opacity:1" /><path
   id="path26"
   style="fill:#ffd442;fill-opacity:1"
   d="M 4.0394558,21.82585 C 3.1195387,21.74375 3.001681,21.779601 3,22.929643 3.013732,33.145476 2.972512,49.545009 3.020653,59.759974 c 0.048085,1.003985 0.2351293,1.352804 1.1228883,1.352804 L 53,61 C 48.586192,61.113749 44.687256,57.02286 45,52.619532 44.9864,47.94354 45.02732,43.266171 44.97935,38.591046 44.811366,36.193864 42.367454,34.680566 40.112241,35 35.605842,34.98634 31.09805,35.027436 26.592529,34.979248 24.200247,34.805371 22.681217,32.36723 23,30.112241 c -0.09883,-1.888703 -0.266873,-5.846204 -0.314359,-7.323585 -0.04319,-1.083615 -0.38599,-1.159518 -1.518201,-1.04988 z"
   sodipodi:nodetypes="ccccccccccccc" /><path
   class="st5"
   d="M 49,59.921 C 46.611,58.537 45,55.959 45,53 V 39 c 0,-2.209 0.458954,-4 -1.750046,-4 H 40 v 10 c 0,6.627 -5.373,12 -12,12 H 3 c 0,2.209 1.791,4 4,4 h 46 c -1.459,0 -2.822,-0.397 -4,-1.079 z"
   id="path28"
   style="fill:#ffd442;fill-opacity:1"
   sodipodi:nodetypes="cssscsscscc" />
<text
   style="font-style:normal;font-weight:normal;font-size:53.33330000000000126px;line-height:1.25;font-family:sans-serif;white-space:pre;shape-inside:url(#rect884);fill:#000000;fill-opacity:1;stroke:none;"
   id="text882"
   xml:space="preserve"><tspan
     style="visibility:hidden"
     x="71.169922"
     y="108.81384"><tspan
       dx="0 25.96875 25.875 29.8125 25.96875 24.46875"
       style="font-style:normal;font-variant:normal;font-weight:bold;font-stretch:normal;font-size:48px;font-family:'Segoe UI';-inkscape-font-specification:'Segoe UI Bold'">TypeFS</tspan></tspan></text><text
   xml:space="preserve"
   style="font-style:normal;font-weight:normal;font-size:48px;line-height:1.25;font-family:'Segoe UI';fill:#000000;fill-opacity:1;stroke:none;-inkscape-font-specification:'Segoe UI';font-stretch:normal;font-variant:normal;"
   x="72.017303"
   y="25.841503"
   id="text854"><tspan
     sodipodi:role="line"
     id="tspan852"
     x="72.017303"
     y="25.841503" /></text><text
   xml:space="preserve"
   style="font-style:normal;font-weight:normal;font-size:40px;line-height:1.25;font-family:sans-serif;fill:#ffffff;fill-opacity:1;stroke:none;stroke-width:1.0015748;stroke-miterlimit:4;stroke-dasharray:none;stroke-opacity:1;"
   x="79.048874"
   y="47.084148"
   id="text858"><tspan
     sodipodi:role="line"
     id="tspan856"
     x="79.048874"
     y="47.084148"
     style="font-style:normal;font-variant:normal;font-weight:bold;font-stretch:normal;font-family:sans-serif;-inkscape-font-specification:'sans-serif Bold';fill:#ffffff;fill-opacity:1;stroke-width:1.0015748;stroke-miterlimit:4;stroke-dasharray:none;stroke:none;stroke-opacity:1;">TypeFS</tspan></text></svg>
